<svg width="49" height="40" viewBox="0 0 49 40" fill="none" xmlns="http://www.w3.org/2000/svg">
<g style="mix-blend-mode:overlay" filter="url(#filter0_i_1213_32910)">
<rect x="49" width="39.5062" height="49" rx="7.03578" transform="rotate(90 49 0)" fill="black" fill-opacity="0.08"/>
</g>
<g style="mix-blend-mode:overlay">
<path d="M37.4263 1.11036L37.0415 1.11036L37.4263 1.11036ZM37.4263 0.725591L37.8111 0.725591L37.8111 0.340822L37.4263 0.340822L37.4263 0.725591ZM37.4263 38.8881L37.8111 38.8881L37.4263 38.8881ZM37.4263 39.2729L37.4263 39.6577L37.8111 39.6577L37.8111 39.2729L37.4263 39.2729ZM36.6568 39.2729L36.272 39.2729L36.272 39.6577L36.6568 39.6577L36.6568 39.2729ZM36.6568 38.8881L37.0415 38.8881L36.6568 38.8881ZM36.6568 1.11036L36.272 1.11036L36.6568 1.11036ZM36.6568 0.725591L36.6568 0.340822L36.272 0.340822L36.272 0.725591L36.6568 0.725591ZM11.7594 1.11036L11.3747 1.11036L11.7594 1.11036ZM11.7594 0.725591L12.1442 0.725591L12.1442 0.340822L11.7594 0.340822L11.7594 0.725591ZM11.7594 38.8881L12.1442 38.8881L11.7594 38.8881ZM11.7594 39.2729L11.7594 39.6577L12.1442 39.6577L12.1442 39.2729L11.7594 39.2729ZM10.9899 39.2729L10.6051 39.2729L10.6051 39.6577L10.9899 39.6577L10.9899 39.2729ZM10.9899 38.8881L11.3747 38.8881L10.9899 38.8881ZM10.9899 1.11036L10.6051 1.11036L10.9899 1.11036ZM10.9899 0.725591L10.9899 0.340822L10.6051 0.340822L10.6051 0.725591L10.9899 0.725591ZM37.0418 11.3897L37.0418 11.0049L37.0418 11.3897ZM37.4266 11.3897L37.4266 11.7745L37.8113 11.7745L37.8113 11.3897L37.4266 11.3897ZM11.3751 11.3897L11.3751 11.7745L11.3751 11.3897ZM10.9904 11.3897L10.6056 11.3897L10.6056 11.7745L10.9904 11.7745L10.9904 11.3897ZM10.9904 10.6201L10.9904 10.2354L10.6056 10.2354L10.6056 10.6201L10.9904 10.6201ZM11.3751 10.6201L11.3751 11.0049L11.3751 10.6201ZM37.0418 10.6201L37.0418 10.2354L37.0418 10.6201ZM37.4266 10.6201L37.8113 10.6201L37.8113 10.2354L37.4266 10.2354L37.4266 10.6201ZM47.8516 19.8552L47.8516 19.4704L47.8516 19.8552ZM48.2363 19.8552L48.2363 20.24L48.6211 20.24L48.6211 19.8552L48.2363 19.8552ZM37.0417 19.8552L37.0417 19.4704L37.0417 19.8552ZM36.6569 19.8552L36.2721 19.8552L36.2721 20.24L36.6569 20.24L36.6569 19.8552ZM36.6569 19.0857L36.6569 18.7009L36.2721 18.7009L36.2721 19.0857L36.6569 19.0857ZM37.0417 19.0857L37.0417 18.7009L37.0417 19.0857ZM47.8516 19.0857L47.8516 18.7009L47.8516 19.0857ZM48.2363 19.0857L48.6211 19.0857L48.6211 18.7009L48.2363 18.7009L48.2363 19.0857ZM23.6251 25.4997L23.6251 25.1149L23.6251 25.4997ZM27.907 29.6299L27.5222 29.6299L27.907 29.6299ZM11.7598 25.4997L11.7598 25.1149L11.3751 25.1149L11.3751 25.4997L11.7598 25.4997ZM11.7599 38.888L11.3751 38.888L11.7599 38.888ZM11.7599 39.2728L11.7599 39.6575L12.1446 39.6575L12.1446 39.2728L11.7599 39.2728ZM10.9903 39.2728L10.6055 39.2728L10.6055 39.6575L10.9903 39.6575L10.9903 39.2728ZM10.9903 38.888L10.6055 38.888L10.9903 38.888ZM10.9903 25.1149L10.6055 25.1149L10.9903 25.1149ZM10.9903 24.7301L10.9903 24.3454L10.6055 24.3454L10.6055 24.7301L10.9903 24.7301ZM11.3751 24.7301L11.3751 25.1149L11.3751 24.7301ZM23.6251 24.7301L23.6251 24.3454L23.6251 24.7301ZM28.6765 29.6299L28.2917 29.6299L28.6765 29.6299ZM28.6765 38.888L28.2917 38.888L28.6765 38.888ZM28.6765 39.2728L28.6765 39.6575L29.0613 39.6575L29.0613 39.2728L28.6765 39.2728ZM27.907 39.2728L27.5222 39.2728L27.5222 39.6575L27.907 39.6575L27.907 39.2728ZM27.907 38.888L27.5222 38.888L27.907 38.888ZM20.2179 25.1149L20.6027 25.1149L20.2179 25.1149ZM20.2179 24.7301L20.6027 24.7301L20.6027 24.3454L20.2179 24.3454L20.2179 24.7301ZM20.2179 38.888L19.8332 38.888L20.2179 38.888ZM20.2179 39.2728L20.2179 39.6575L20.6027 39.6575L20.6027 39.2728L20.2179 39.2728ZM19.4484 39.2728L19.0636 39.2728L19.0636 39.6575L19.4484 39.6575L19.4484 39.2728ZM19.4484 38.888L19.0636 38.888L19.4484 38.888ZM19.4484 25.1149L19.8332 25.1149L19.4484 25.1149ZM19.4484 24.7301L19.4484 24.3454L19.0636 24.3454L19.0636 24.7301L19.4484 24.7301ZM28.8706 1.11036L29.2553 1.11036L28.8706 1.11036ZM28.8706 0.725591L29.2553 0.725591L29.2553 0.340822L28.8706 0.340822L28.8706 0.725591ZM28.8706 11.0057L28.4858 11.0057L28.8706 11.0057ZM28.8706 11.3905L28.8706 11.7752L29.2553 11.7752L29.2553 11.3905L28.8706 11.3905ZM28.101 11.3905L27.7163 11.3905L27.7163 11.7752L28.101 11.7752L28.101 11.3905ZM28.101 11.0057L27.7163 11.0057L28.101 11.0057ZM28.101 1.11036L28.4858 1.11036L28.101 1.11036ZM28.101 0.725591L28.101 0.340822L27.7163 0.340822L27.7163 0.725591L28.101 0.725591ZM20.3152 1.11036L19.9304 1.11036L20.3152 1.11036ZM20.3152 0.725591L20.6999 0.725591L20.6999 0.340822L20.3152 0.340822L20.3152 0.725591ZM20.3152 11.0057L19.9304 11.0057L20.3152 11.0057ZM20.3152 11.3905L20.3152 11.7752L20.6999 11.7752L20.6999 11.3905L20.3152 11.3905ZM19.5456 11.3905L19.1608 11.3905L19.1608 11.7752L19.5456 11.7752L19.5456 11.3905ZM19.5456 11.0057L19.1608 11.0057L19.5456 11.0057ZM19.5456 1.11036L19.1608 1.11036L19.5456 1.11036ZM19.5456 0.725591L19.5456 0.340822L19.1608 0.340822L19.1608 0.725591L19.5456 0.725591ZM11.3751 19.8556L11.3751 20.2403L11.3751 19.8556ZM11.7599 19.8556L11.7599 20.2403L12.1447 20.2403L12.1447 19.8556L11.7599 19.8556ZM1.14856 19.8556L1.14856 20.2403L1.14856 19.8556ZM0.763792 19.8556L0.379023 19.8556L0.379023 20.2403L0.763792 20.2403L0.763792 19.8556ZM0.763788 19.086L0.763788 18.7013L0.379023 18.7013L0.379023 19.086L0.763788 19.086ZM1.14856 19.086L1.14856 19.4708L1.14856 19.086ZM11.3751 19.086L11.3751 19.4708L11.3751 19.086ZM11.7599 19.086L12.1447 19.086L12.1447 18.7013L11.7599 18.7013L11.7599 19.086ZM37.8111 1.11036L37.8111 0.725591L37.0415 0.725591L37.0415 1.11036L37.8111 1.11036ZM37.8111 38.8881L37.8111 1.11036L37.0415 1.11036L37.0415 38.8881L37.8111 38.8881ZM37.8111 39.2729L37.8111 38.8881L37.0415 38.8881L37.0415 39.2729L37.8111 39.2729ZM36.6568 39.6577L37.4263 39.6577L37.4263 38.8881L36.6568 38.8881L36.6568 39.6577ZM36.272 38.8881L36.272 39.2729L37.0415 39.2729L37.0415 38.8881L36.272 38.8881ZM36.272 1.11036L36.272 38.8881L37.0415 38.8881L37.0415 1.11036L36.272 1.11036ZM36.272 0.725591L36.272 1.11036L37.0415 1.11036L37.0415 0.725591L36.272 0.725591ZM37.4263 0.340822L36.6568 0.340822L36.6568 1.11036L37.4263 1.11036L37.4263 0.340822ZM12.1442 1.11036L12.1442 0.725591L11.3747 0.725591L11.3747 1.11036L12.1442 1.11036ZM12.1442 38.8881L12.1442 1.11036L11.3747 1.11036L11.3747 38.8881L12.1442 38.8881ZM12.1442 39.2729L12.1442 38.8881L11.3747 38.8881L11.3747 39.2729L12.1442 39.2729ZM10.9899 39.6577L11.7594 39.6577L11.7594 38.8881L10.9899 38.8881L10.9899 39.6577ZM10.6051 38.8881L10.6051 39.2729L11.3747 39.2729L11.3747 38.8881L10.6051 38.8881ZM10.6051 1.11036L10.6051 38.8881L11.3747 38.8881L11.3747 1.11036L10.6051 1.11036ZM10.6051 0.725591L10.6051 1.11036L11.3747 1.11036L11.3747 0.725591L10.6051 0.725591ZM11.7594 0.340822L10.9899 0.340822L10.9899 1.11036L11.7594 1.11036L11.7594 0.340822ZM37.0418 11.7745L37.4266 11.7745L37.4266 11.0049L37.0418 11.0049L37.0418 11.7745ZM11.3751 11.7745L37.0418 11.7745L37.0418 11.0049L11.3751 11.0049L11.3751 11.7745ZM10.9904 11.7745L11.3751 11.7745L11.3751 11.0049L10.9904 11.0049L10.9904 11.7745ZM10.6056 10.6201L10.6056 11.3897L11.3751 11.3897L11.3751 10.6201L10.6056 10.6201ZM11.3751 10.2354L10.9904 10.2354L10.9904 11.0049L11.3751 11.0049L11.3751 10.2354ZM37.0418 10.2354L11.3751 10.2354L11.3751 11.0049L37.0418 11.0049L37.0418 10.2354ZM37.4266 10.2354L37.0418 10.2354L37.0418 11.0049L37.4266 11.0049L37.4266 10.2354ZM37.8113 11.3897L37.8113 10.6201L37.0418 10.6201L37.0418 11.3897L37.8113 11.3897ZM47.8516 20.24L48.2363 20.24L48.2363 19.4704L47.8516 19.4704L47.8516 20.24ZM37.0417 20.24L47.8516 20.24L47.8516 19.4704L37.0417 19.4704L37.0417 20.24ZM36.6569 20.24L37.0417 20.24L37.0417 19.4704L36.6569 19.4704L36.6569 20.24ZM36.2721 19.0857L36.2721 19.8552L37.0417 19.8552L37.0417 19.0857L36.2721 19.0857ZM37.0417 18.7009L36.6569 18.7009L36.6569 19.4704L37.0417 19.4704L37.0417 18.7009ZM47.8516 18.7009L37.0417 18.7009L37.0417 19.4704L47.8516 19.4704L47.8516 18.7009ZM48.2363 18.7009L47.8516 18.7009L47.8516 19.4704L48.2363 19.4704L48.2363 18.7009ZM48.6211 19.8552L48.6211 19.0857L47.8516 19.0857L47.8516 19.8552L48.6211 19.8552ZM23.6251 25.8844C25.8012 25.8844 27.5222 27.5848 27.5222 29.6299L28.2917 29.6299C28.2917 27.1367 26.2027 25.1149 23.6251 25.1149L23.6251 25.8844ZM11.7599 25.8844L23.6251 25.8844L23.6251 25.1149L11.7598 25.1149L11.7599 25.8844ZM12.1446 38.888L12.1446 25.4997L11.3751 25.4997L11.3751 38.888L12.1446 38.888ZM12.1446 39.2728L12.1446 38.888L11.3751 38.888L11.3751 39.2728L12.1446 39.2728ZM10.9903 39.6575L11.7599 39.6575L11.7599 38.888L10.9903 38.888L10.9903 39.6575ZM10.6055 38.888L10.6055 39.2728L11.3751 39.2728L11.3751 38.888L10.6055 38.888ZM10.6055 25.1149L10.6055 38.888L11.3751 38.888L11.3751 25.1149L10.6055 25.1149ZM10.6055 24.7301L10.6055 25.1149L11.3751 25.1149L11.3751 24.7301L10.6055 24.7301ZM11.3751 24.3454L10.9903 24.3454L10.9903 25.1149L11.3751 25.1149L11.3751 24.3454ZM23.6251 24.3454L11.3751 24.3454L11.3751 25.1149L23.6251 25.1149L23.6251 24.3454ZM29.0613 29.6299C29.0613 26.6873 26.603 24.3454 23.6251 24.3454L23.6251 25.1149C26.2027 25.1149 28.2917 27.1366 28.2917 29.6299L29.0613 29.6299ZM29.0613 38.888L29.0613 29.6299L28.2917 29.6299L28.2917 38.888L29.0613 38.888ZM29.0613 39.2728L29.0613 38.888L28.2917 38.888L28.2917 39.2728L29.0613 39.2728ZM27.907 39.6575L28.6765 39.6575L28.6765 38.888L27.907 38.888L27.907 39.6575ZM27.5222 38.888L27.5222 39.2728L28.2917 39.2728L28.2917 38.888L27.5222 38.888ZM27.5222 29.6299L27.5222 38.888L28.2917 38.888L28.2917 29.6299L27.5222 29.6299ZM20.6027 25.1149L20.6027 24.7301L19.8332 24.7301L19.8332 25.1149L20.6027 25.1149ZM20.6027 38.888L20.6027 25.1149L19.8332 25.1149L19.8332 38.888L20.6027 38.888ZM20.6027 39.2728L20.6027 38.888L19.8332 38.888L19.8332 39.2728L20.6027 39.2728ZM19.4484 39.6575L20.2179 39.6575L20.2179 38.888L19.4484 38.888L19.4484 39.6575ZM19.0636 38.888L19.0636 39.2728L19.8332 39.2728L19.8332 38.888L19.0636 38.888ZM19.0636 25.1149L19.0636 38.888L19.8332 38.888L19.8332 25.1149L19.0636 25.1149ZM19.0636 24.7301L19.0636 25.1149L19.8332 25.1149L19.8332 24.7301L19.0636 24.7301ZM20.2179 24.3454L19.4484 24.3454L19.4484 25.1149L20.2179 25.1149L20.2179 24.3454ZM29.2553 1.11036L29.2553 0.725591L28.4858 0.725591L28.4858 1.11036L29.2553 1.11036ZM29.2553 11.0057L29.2553 1.11036L28.4858 1.11036L28.4858 11.0057L29.2553 11.0057ZM29.2553 11.3905L29.2553 11.0057L28.4858 11.0057L28.4858 11.3905L29.2553 11.3905ZM28.101 11.7752L28.8706 11.7752L28.8706 11.0057L28.101 11.0057L28.101 11.7752ZM27.7163 11.0057L27.7163 11.3905L28.4858 11.3905L28.4858 11.0057L27.7163 11.0057ZM27.7163 1.11036L27.7163 11.0057L28.4858 11.0057L28.4858 1.11036L27.7163 1.11036ZM27.7163 0.725591L27.7163 1.11036L28.4858 1.11036L28.4858 0.725591L27.7163 0.725591ZM28.8706 0.340822L28.101 0.340822L28.101 1.11036L28.8706 1.11036L28.8706 0.340822ZM20.6999 1.11036L20.6999 0.725591L19.9304 0.725591L19.9304 1.11036L20.6999 1.11036ZM20.6999 11.0057L20.6999 1.11036L19.9304 1.11036L19.9304 11.0057L20.6999 11.0057ZM20.6999 11.3905L20.6999 11.0057L19.9304 11.0057L19.9304 11.3905L20.6999 11.3905ZM19.5456 11.7752L20.3152 11.7752L20.3152 11.0057L19.5456 11.0057L19.5456 11.7752ZM19.1608 11.0057L19.1608 11.3905L19.9304 11.3905L19.9304 11.0057L19.1608 11.0057ZM19.1608 1.11036L19.1608 11.0057L19.9304 11.0057L19.9304 1.11036L19.1608 1.11036ZM19.1608 0.725591L19.1608 1.11036L19.9304 1.11036L19.9304 0.725591L19.1608 0.725591ZM20.3152 0.340822L19.5456 0.340822L19.5456 1.11036L20.3152 1.11036L20.3152 0.340822ZM11.3751 20.2403L11.7599 20.2403L11.7599 19.4708L11.3751 19.4708L11.3751 20.2403ZM1.14856 20.2403L11.3751 20.2403L11.3751 19.4708L1.14856 19.4708L1.14856 20.2403ZM0.763792 20.2403L1.14856 20.2403L1.14856 19.4708L0.763789 19.4708L0.763792 20.2403ZM0.379023 19.086L0.379023 19.8556L1.14856 19.8556L1.14856 19.086L0.379023 19.086ZM1.14856 18.7013L0.763788 18.7013L0.763789 19.4708L1.14856 19.4708L1.14856 18.7013ZM11.3751 18.7013L1.14856 18.7013L1.14856 19.4708L11.3751 19.4708L11.3751 18.7013ZM11.7599 18.7013L11.3751 18.7013L11.3751 19.4708L11.7599 19.4708L11.7599 18.7013ZM12.1447 19.8556L12.1447 19.086L11.3751 19.086L11.3751 19.8556L12.1447 19.8556Z" fill="url(#paint0_linear_1213_32910)"/>
</g>
<g style="mix-blend-mode:overlay">
<rect x="48.625" y="0.375" width="39.25" height="48.25" rx="6.66078" transform="rotate(90 48.625 0.375)" stroke="url(#paint1_linear_1213_32910)" stroke-width="0.75"/>
</g>
<g opacity="0.2">
<g style="mix-blend-mode:overlay" filter="url(#filter1_i_1213_32910)">
<rect x="49" width="39.5062" height="49" rx="7.03578" transform="rotate(90 49 0)" fill="black" fill-opacity="0.08"/>
</g>
<g style="mix-blend-mode:overlay">
<path d="M37.4263 1.11036L37.0415 1.11036L37.4263 1.11036ZM37.4263 0.725591L37.8111 0.725591L37.8111 0.340822L37.4263 0.340822L37.4263 0.725591ZM37.4263 38.8881L37.8111 38.8881L37.4263 38.8881ZM37.4263 39.2729L37.4263 39.6577L37.8111 39.6577L37.8111 39.2729L37.4263 39.2729ZM36.6568 39.2729L36.272 39.2729L36.272 39.6577L36.6568 39.6577L36.6568 39.2729ZM36.6568 38.8881L37.0415 38.8881L36.6568 38.8881ZM36.6568 1.11036L36.272 1.11036L36.6568 1.11036ZM36.6568 0.725591L36.6568 0.340822L36.272 0.340822L36.272 0.725591L36.6568 0.725591ZM11.7594 1.11036L11.3747 1.11036L11.7594 1.11036ZM11.7594 0.725591L12.1442 0.725591L12.1442 0.340822L11.7594 0.340822L11.7594 0.725591ZM11.7594 38.8881L12.1442 38.8881L11.7594 38.8881ZM11.7594 39.2729L11.7594 39.6577L12.1442 39.6577L12.1442 39.2729L11.7594 39.2729ZM10.9899 39.2729L10.6051 39.2729L10.6051 39.6577L10.9899 39.6577L10.9899 39.2729ZM10.9899 38.8881L11.3747 38.8881L10.9899 38.8881ZM10.9899 1.11036L10.6051 1.11036L10.9899 1.11036ZM10.9899 0.725591L10.9899 0.340822L10.6051 0.340822L10.6051 0.725591L10.9899 0.725591ZM37.0418 11.3897L37.0418 11.0049L37.0418 11.3897ZM37.4266 11.3897L37.4266 11.7745L37.8113 11.7745L37.8113 11.3897L37.4266 11.3897ZM11.3751 11.3897L11.3751 11.7745L11.3751 11.3897ZM10.9904 11.3897L10.6056 11.3897L10.6056 11.7745L10.9904 11.7745L10.9904 11.3897ZM10.9904 10.6201L10.9904 10.2354L10.6056 10.2354L10.6056 10.6201L10.9904 10.6201ZM11.3751 10.6201L11.3751 11.0049L11.3751 10.6201ZM37.0418 10.6201L37.0418 10.2354L37.0418 10.6201ZM37.4266 10.6201L37.8113 10.6201L37.8113 10.2354L37.4266 10.2354L37.4266 10.6201ZM47.8516 19.8552L47.8516 19.4704L47.8516 19.8552ZM48.2363 19.8552L48.2363 20.24L48.6211 20.24L48.6211 19.8552L48.2363 19.8552ZM37.0417 19.8552L37.0417 19.4704L37.0417 19.8552ZM36.6569 19.8552L36.2721 19.8552L36.2721 20.24L36.6569 20.24L36.6569 19.8552ZM36.6569 19.0857L36.6569 18.7009L36.2721 18.7009L36.2721 19.0857L36.6569 19.0857ZM37.0417 19.0857L37.0417 18.7009L37.0417 19.0857ZM47.8516 19.0857L47.8516 18.7009L47.8516 19.0857ZM48.2363 19.0857L48.6211 19.0857L48.6211 18.7009L48.2363 18.7009L48.2363 19.0857ZM23.6251 25.4997L23.6251 25.1149L23.6251 25.4997ZM27.907 29.6299L27.5222 29.6299L27.907 29.6299ZM11.7598 25.4997L11.7598 25.1149L11.3751 25.1149L11.3751 25.4997L11.7598 25.4997ZM11.7599 38.888L11.3751 38.888L11.7599 38.888ZM11.7599 39.2728L11.7599 39.6575L12.1446 39.6575L12.1446 39.2728L11.7599 39.2728ZM10.9903 39.2728L10.6055 39.2728L10.6055 39.6575L10.9903 39.6575L10.9903 39.2728ZM10.9903 38.888L10.6055 38.888L10.9903 38.888ZM10.9903 25.1149L10.6055 25.1149L10.9903 25.1149ZM10.9903 24.7301L10.9903 24.3454L10.6055 24.3454L10.6055 24.7301L10.9903 24.7301ZM11.3751 24.7301L11.3751 25.1149L11.3751 24.7301ZM23.6251 24.7301L23.6251 24.3454L23.6251 24.7301ZM28.6765 29.6299L28.2917 29.6299L28.6765 29.6299ZM28.6765 38.888L28.2917 38.888L28.6765 38.888ZM28.6765 39.2728L28.6765 39.6575L29.0613 39.6575L29.0613 39.2728L28.6765 39.2728ZM27.907 39.2728L27.5222 39.2728L27.5222 39.6575L27.907 39.6575L27.907 39.2728ZM27.907 38.888L27.5222 38.888L27.907 38.888ZM20.2179 25.1149L20.6027 25.1149L20.2179 25.1149ZM20.2179 24.7301L20.6027 24.7301L20.6027 24.3454L20.2179 24.3454L20.2179 24.7301ZM20.2179 38.888L19.8332 38.888L20.2179 38.888ZM20.2179 39.2728L20.2179 39.6575L20.6027 39.6575L20.6027 39.2728L20.2179 39.2728ZM19.4484 39.2728L19.0636 39.2728L19.0636 39.6575L19.4484 39.6575L19.4484 39.2728ZM19.4484 38.888L19.0636 38.888L19.4484 38.888ZM19.4484 25.1149L19.8332 25.1149L19.4484 25.1149ZM19.4484 24.7301L19.4484 24.3454L19.0636 24.3454L19.0636 24.7301L19.4484 24.7301ZM28.8706 1.11036L29.2553 1.11036L28.8706 1.11036ZM28.8706 0.725591L29.2553 0.725591L29.2553 0.340822L28.8706 0.340822L28.8706 0.725591ZM28.8706 11.0057L28.4858 11.0057L28.8706 11.0057ZM28.8706 11.3905L28.8706 11.7752L29.2553 11.7752L29.2553 11.3905L28.8706 11.3905ZM28.101 11.3905L27.7163 11.3905L27.7163 11.7752L28.101 11.7752L28.101 11.3905ZM28.101 11.0057L27.7163 11.0057L28.101 11.0057ZM28.101 1.11036L28.4858 1.11036L28.101 1.11036ZM28.101 0.725591L28.101 0.340822L27.7163 0.340822L27.7163 0.725591L28.101 0.725591ZM20.3152 1.11036L19.9304 1.11036L20.3152 1.11036ZM20.3152 0.725591L20.6999 0.725591L20.6999 0.340822L20.3152 0.340822L20.3152 0.725591ZM20.3152 11.0057L19.9304 11.0057L20.3152 11.0057ZM20.3152 11.3905L20.3152 11.7752L20.6999 11.7752L20.6999 11.3905L20.3152 11.3905ZM19.5456 11.3905L19.1608 11.3905L19.1608 11.7752L19.5456 11.7752L19.5456 11.3905ZM19.5456 11.0057L19.1608 11.0057L19.5456 11.0057ZM19.5456 1.11036L19.1608 1.11036L19.5456 1.11036ZM19.5456 0.725591L19.5456 0.340822L19.1608 0.340822L19.1608 0.725591L19.5456 0.725591ZM11.3751 19.8556L11.3751 20.2403L11.3751 19.8556ZM11.7599 19.8556L11.7599 20.2403L12.1447 20.2403L12.1447 19.8556L11.7599 19.8556ZM1.14856 19.8556L1.14856 20.2403L1.14856 19.8556ZM0.763792 19.8556L0.379023 19.8556L0.379023 20.2403L0.763792 20.2403L0.763792 19.8556ZM0.763788 19.086L0.763788 18.7013L0.379023 18.7013L0.379023 19.086L0.763788 19.086ZM1.14856 19.086L1.14856 19.4708L1.14856 19.086ZM11.3751 19.086L11.3751 19.4708L11.3751 19.086ZM11.7599 19.086L12.1447 19.086L12.1447 18.7013L11.7599 18.7013L11.7599 19.086ZM37.8111 1.11036L37.8111 0.725591L37.0415 0.725591L37.0415 1.11036L37.8111 1.11036ZM37.8111 38.8881L37.8111 1.11036L37.0415 1.11036L37.0415 38.8881L37.8111 38.8881ZM37.8111 39.2729L37.8111 38.8881L37.0415 38.8881L37.0415 39.2729L37.8111 39.2729ZM36.6568 39.6577L37.4263 39.6577L37.4263 38.8881L36.6568 38.8881L36.6568 39.6577ZM36.272 38.8881L36.272 39.2729L37.0415 39.2729L37.0415 38.8881L36.272 38.8881ZM36.272 1.11036L36.272 38.8881L37.0415 38.8881L37.0415 1.11036L36.272 1.11036ZM36.272 0.725591L36.272 1.11036L37.0415 1.11036L37.0415 0.725591L36.272 0.725591ZM37.4263 0.340822L36.6568 0.340822L36.6568 1.11036L37.4263 1.11036L37.4263 0.340822ZM12.1442 1.11036L12.1442 0.725591L11.3747 0.725591L11.3747 1.11036L12.1442 1.11036ZM12.1442 38.8881L12.1442 1.11036L11.3747 1.11036L11.3747 38.8881L12.1442 38.8881ZM12.1442 39.2729L12.1442 38.8881L11.3747 38.8881L11.3747 39.2729L12.1442 39.2729ZM10.9899 39.6577L11.7594 39.6577L11.7594 38.8881L10.9899 38.8881L10.9899 39.6577ZM10.6051 38.8881L10.6051 39.2729L11.3747 39.2729L11.3747 38.8881L10.6051 38.8881ZM10.6051 1.11036L10.6051 38.8881L11.3747 38.8881L11.3747 1.11036L10.6051 1.11036ZM10.6051 0.725591L10.6051 1.11036L11.3747 1.11036L11.3747 0.725591L10.6051 0.725591ZM11.7594 0.340822L10.9899 0.340822L10.9899 1.11036L11.7594 1.11036L11.7594 0.340822ZM37.0418 11.7745L37.4266 11.7745L37.4266 11.0049L37.0418 11.0049L37.0418 11.7745ZM11.3751 11.7745L37.0418 11.7745L37.0418 11.0049L11.3751 11.0049L11.3751 11.7745ZM10.9904 11.7745L11.3751 11.7745L11.3751 11.0049L10.9904 11.0049L10.9904 11.7745ZM10.6056 10.6201L10.6056 11.3897L11.3751 11.3897L11.3751 10.6201L10.6056 10.6201ZM11.3751 10.2354L10.9904 10.2354L10.9904 11.0049L11.3751 11.0049L11.3751 10.2354ZM37.0418 10.2354L11.3751 10.2354L11.3751 11.0049L37.0418 11.0049L37.0418 10.2354ZM37.4266 10.2354L37.0418 10.2354L37.0418 11.0049L37.4266 11.0049L37.4266 10.2354ZM37.8113 11.3897L37.8113 10.6201L37.0418 10.6201L37.0418 11.3897L37.8113 11.3897ZM47.8516 20.24L48.2363 20.24L48.2363 19.4704L47.8516 19.4704L47.8516 20.24ZM37.0417 20.24L47.8516 20.24L47.8516 19.4704L37.0417 19.4704L37.0417 20.24ZM36.6569 20.24L37.0417 20.24L37.0417 19.4704L36.6569 19.4704L36.6569 20.24ZM36.2721 19.0857L36.2721 19.8552L37.0417 19.8552L37.0417 19.0857L36.2721 19.0857ZM37.0417 18.7009L36.6569 18.7009L36.6569 19.4704L37.0417 19.4704L37.0417 18.7009ZM47.8516 18.7009L37.0417 18.7009L37.0417 19.4704L47.8516 19.4704L47.8516 18.7009ZM48.2363 18.7009L47.8516 18.7009L47.8516 19.4704L48.2363 19.4704L48.2363 18.7009ZM48.6211 19.8552L48.6211 19.0857L47.8516 19.0857L47.8516 19.8552L48.6211 19.8552ZM23.6251 25.8844C25.8012 25.8844 27.5222 27.5848 27.5222 29.6299L28.2917 29.6299C28.2917 27.1367 26.2027 25.1149 23.6251 25.1149L23.6251 25.8844ZM11.7599 25.8844L23.6251 25.8844L23.6251 25.1149L11.7598 25.1149L11.7599 25.8844ZM12.1446 38.888L12.1446 25.4997L11.3751 25.4997L11.3751 38.888L12.1446 38.888ZM12.1446 39.2728L12.1446 38.888L11.3751 38.888L11.3751 39.2728L12.1446 39.2728ZM10.9903 39.6575L11.7599 39.6575L11.7599 38.888L10.9903 38.888L10.9903 39.6575ZM10.6055 38.888L10.6055 39.2728L11.3751 39.2728L11.3751 38.888L10.6055 38.888ZM10.6055 25.1149L10.6055 38.888L11.3751 38.888L11.3751 25.1149L10.6055 25.1149ZM10.6055 24.7301L10.6055 25.1149L11.3751 25.1149L11.3751 24.7301L10.6055 24.7301ZM11.3751 24.3454L10.9903 24.3454L10.9903 25.1149L11.3751 25.1149L11.3751 24.3454ZM23.6251 24.3454L11.3751 24.3454L11.3751 25.1149L23.6251 25.1149L23.6251 24.3454ZM29.0613 29.6299C29.0613 26.6873 26.603 24.3454 23.6251 24.3454L23.6251 25.1149C26.2027 25.1149 28.2917 27.1366 28.2917 29.6299L29.0613 29.6299ZM29.0613 38.888L29.0613 29.6299L28.2917 29.6299L28.2917 38.888L29.0613 38.888ZM29.0613 39.2728L29.0613 38.888L28.2917 38.888L28.2917 39.2728L29.0613 39.2728ZM27.907 39.6575L28.6765 39.6575L28.6765 38.888L27.907 38.888L27.907 39.6575ZM27.5222 38.888L27.5222 39.2728L28.2917 39.2728L28.2917 38.888L27.5222 38.888ZM27.5222 29.6299L27.5222 38.888L28.2917 38.888L28.2917 29.6299L27.5222 29.6299ZM20.6027 25.1149L20.6027 24.7301L19.8332 24.7301L19.8332 25.1149L20.6027 25.1149ZM20.6027 38.888L20.6027 25.1149L19.8332 25.1149L19.8332 38.888L20.6027 38.888ZM20.6027 39.2728L20.6027 38.888L19.8332 38.888L19.8332 39.2728L20.6027 39.2728ZM19.4484 39.6575L20.2179 39.6575L20.2179 38.888L19.4484 38.888L19.4484 39.6575ZM19.0636 38.888L19.0636 39.2728L19.8332 39.2728L19.8332 38.888L19.0636 38.888ZM19.0636 25.1149L19.0636 38.888L19.8332 38.888L19.8332 25.1149L19.0636 25.1149ZM19.0636 24.7301L19.0636 25.1149L19.8332 25.1149L19.8332 24.7301L19.0636 24.7301ZM20.2179 24.3454L19.4484 24.3454L19.4484 25.1149L20.2179 25.1149L20.2179 24.3454ZM29.2553 1.11036L29.2553 0.725591L28.4858 0.725591L28.4858 1.11036L29.2553 1.11036ZM29.2553 11.0057L29.2553 1.11036L28.4858 1.11036L28.4858 11.0057L29.2553 11.0057ZM29.2553 11.3905L29.2553 11.0057L28.4858 11.0057L28.4858 11.3905L29.2553 11.3905ZM28.101 11.7752L28.8706 11.7752L28.8706 11.0057L28.101 11.0057L28.101 11.7752ZM27.7163 11.0057L27.7163 11.3905L28.4858 11.3905L28.4858 11.0057L27.7163 11.0057ZM27.7163 1.11036L27.7163 11.0057L28.4858 11.0057L28.4858 1.11036L27.7163 1.11036ZM27.7163 0.725591L27.7163 1.11036L28.4858 1.11036L28.4858 0.725591L27.7163 0.725591ZM28.8706 0.340822L28.101 0.340822L28.101 1.11036L28.8706 1.11036L28.8706 0.340822ZM20.6999 1.11036L20.6999 0.725591L19.9304 0.725591L19.9304 1.11036L20.6999 1.11036ZM20.6999 11.0057L20.6999 1.11036L19.9304 1.11036L19.9304 11.0057L20.6999 11.0057ZM20.6999 11.3905L20.6999 11.0057L19.9304 11.0057L19.9304 11.3905L20.6999 11.3905ZM19.5456 11.7752L20.3152 11.7752L20.3152 11.0057L19.5456 11.0057L19.5456 11.7752ZM19.1608 11.0057L19.1608 11.3905L19.9304 11.3905L19.9304 11.0057L19.1608 11.0057ZM19.1608 1.11036L19.1608 11.0057L19.9304 11.0057L19.9304 1.11036L19.1608 1.11036ZM19.1608 0.725591L19.1608 1.11036L19.9304 1.11036L19.9304 0.725591L19.1608 0.725591ZM20.3152 0.340822L19.5456 0.340822L19.5456 1.11036L20.3152 1.11036L20.3152 0.340822ZM11.3751 20.2403L11.7599 20.2403L11.7599 19.4708L11.3751 19.4708L11.3751 20.2403ZM1.14856 20.2403L11.3751 20.2403L11.3751 19.4708L1.14856 19.4708L1.14856 20.2403ZM0.763792 20.2403L1.14856 20.2403L1.14856 19.4708L0.763789 19.4708L0.763792 20.2403ZM0.379023 19.086L0.379023 19.8556L1.14856 19.8556L1.14856 19.086L0.379023 19.086ZM1.14856 18.7013L0.763788 18.7013L0.763789 19.4708L1.14856 19.4708L1.14856 18.7013ZM11.3751 18.7013L1.14856 18.7013L1.14856 19.4708L11.3751 19.4708L11.3751 18.7013ZM11.7599 18.7013L11.3751 18.7013L11.3751 19.4708L11.7599 19.4708L11.7599 18.7013ZM12.1447 19.8556L12.1447 19.086L11.3751 19.086L11.3751 19.8556L12.1447 19.8556Z" fill="url(#paint2_linear_1213_32910)"/>
</g>
<g style="mix-blend-mode:overlay">
<rect x="48.625" y="0.375" width="39.25" height="48.25" rx="6.66078" transform="rotate(90 48.625 0.375)" stroke="url(#paint3_linear_1213_32910)" stroke-width="0.75"/>
</g>
</g>
<defs>
<filter id="filter0_i_1213_32910" x="0" y="0" width="50.5391" height="39.5063" filterUnits="userSpaceOnUse" color-interpolation-filters="sRGB">
<feFlood flood-opacity="0" result="BackgroundImageFix"/>
<feBlend mode="normal" in="SourceGraphic" in2="BackgroundImageFix" result="shape"/>
<feColorMatrix in="SourceAlpha" type="matrix" values="0 0 0 0 0 0 0 0 0 0 0 0 0 0 0 0 0 0 127 0" result="hardAlpha"/>
<feOffset dx="1.53908"/>
<feGaussianBlur stdDeviation="1.53908"/>
<feComposite in2="hardAlpha" operator="arithmetic" k2="-1" k3="1"/>
<feColorMatrix type="matrix" values="0 0 0 0 0 0 0 0 0 0 0 0 0 0 0 0 0 0 0.6 0"/>
<feBlend mode="normal" in2="shape" result="effect1_innerShadow_1213_32910"/>
</filter>
<filter id="filter1_i_1213_32910" x="0" y="0" width="50.5391" height="39.5063" filterUnits="userSpaceOnUse" color-interpolation-filters="sRGB">
<feFlood flood-opacity="0" result="BackgroundImageFix"/>
<feBlend mode="normal" in="SourceGraphic" in2="BackgroundImageFix" result="shape"/>
<feColorMatrix in="SourceAlpha" type="matrix" values="0 0 0 0 0 0 0 0 0 0 0 0 0 0 0 0 0 0 127 0" result="hardAlpha"/>
<feOffset dx="1.53908"/>
<feGaussianBlur stdDeviation="1.53908"/>
<feComposite in2="hardAlpha" operator="arithmetic" k2="-1" k3="1"/>
<feColorMatrix type="matrix" values="0 0 0 0 0 0 0 0 0 0 0 0 0 0 0 0 0 0 0.6 0"/>
<feBlend mode="normal" in2="shape" result="effect1_innerShadow_1213_32910"/>
</filter>
<linearGradient id="paint0_linear_1213_32910" x1="48.2363" y1="39.2729" x2="48.2363" y2="0.725586" gradientUnits="userSpaceOnUse">
<stop/>
<stop offset="1" stop-opacity="0.4"/>
</linearGradient>
<linearGradient id="paint1_linear_1213_32910" x1="49" y1="49" x2="89" y2="49" gradientUnits="userSpaceOnUse">
<stop stop-opacity="0.5001"/>
<stop offset="1"/>
</linearGradient>
<linearGradient id="paint2_linear_1213_32910" x1="48.2363" y1="39.2729" x2="48.2363" y2="0.725586" gradientUnits="userSpaceOnUse">
<stop/>
<stop offset="1" stop-opacity="0.4"/>
</linearGradient>
<linearGradient id="paint3_linear_1213_32910" x1="49" y1="49" x2="89" y2="49" gradientUnits="userSpaceOnUse">
<stop stop-opacity="0.5001"/>
<stop offset="1"/>
</linearGradient>
</defs>
</svg>
