<svg width="92" height="28" viewBox="0 0 92 28" fill="none" xmlns="http://www.w3.org/2000/svg">
<g style="mix-blend-mode:hard-light">
<path d="M50.9282 9.97102C50.9282 12.907 50.9282 15.3167 50.9282 17.2002C50.9282 20.0254 49.3328 21.9365 46.9397 21.9365" stroke="white" stroke-width="3.9885" stroke-linecap="round" stroke-linejoin="round"/>
<path d="M42.9512 9.97102C42.9512 12.907 42.9512 15.3167 42.9512 17.2002C42.9512 20.0254 41.3558 21.9365 38.9627 21.9365" stroke="white" stroke-width="3.9885" stroke-linecap="round" stroke-linejoin="round"/>
<path fill-rule="evenodd" clip-rule="evenodd" d="M50.9282 5.98264C52.0277 5.98264 52.9223 5.08797 52.9223 3.98828C52.9223 2.8886 52.0277 1.99414 50.9282 1.99414C49.8283 1.99414 48.9338 2.8886 48.9338 3.98828C48.9338 5.08797 49.8283 5.98264 50.9282 5.98264Z" fill="white"/>
<path d="M32.9798 21.9365H26.9971" stroke="white" stroke-width="3.9885" stroke-linecap="round" stroke-linejoin="round"/>
<path d="M34.9742 9.97119V12.1649C34.9742 14.3677 33.1885 15.9539 30.9857 15.9539H19.0202C16.8175 15.9539 15.0317 14.3677 15.0317 12.1649V9.97119" stroke="white" stroke-width="3.9885" stroke-linecap="round" stroke-linejoin="round"/>
<path fill-rule="evenodd" clip-rule="evenodd" d="M9.04905 5.98264C10.1485 5.98264 11.0432 5.08797 11.0432 3.98828C11.0432 2.8886 10.1485 1.99414 9.04905 1.99414C7.94914 1.99414 7.05469 2.8886 7.05469 3.98828C7.05469 5.08797 7.94914 5.98264 9.04905 5.98264Z" fill="white"/>
<path d="M3.06616 9.97119V15.9539C3.06616 19.2581 5.74473 21.9367 9.04891 21.9367V21.9367C12.3531 21.9367 15.0317 19.2581 15.0317 15.9539V9.97119" stroke="white" stroke-width="3.9885" stroke-linecap="round" stroke-linejoin="round"/>
<path fill-rule="evenodd" clip-rule="evenodd" d="M76.8529 7.97705C77.9543 7.97705 78.8471 8.86991 78.8471 9.9713V11.9656C78.8471 13.0669 79.74 13.9598 80.8414 13.9598H84.8299C85.9313 13.9598 86.8241 13.0669 86.8241 11.9656V9.9713C86.8241 8.86991 87.717 7.97705 88.8184 7.97705C89.9198 7.97705 90.8126 8.86991 90.8126 9.9713V11.9656C90.8126 15.2697 88.1341 17.9483 84.8299 17.9483H80.8414C77.5372 17.9483 74.8586 15.2697 74.8586 11.9656V9.9713C74.8586 8.86991 75.7515 7.97705 76.8529 7.97705Z" fill="white"/>
<path fill-rule="evenodd" clip-rule="evenodd" d="M76.8527 7.97705C77.9541 7.97705 78.847 8.86991 78.847 9.9713V11.9656C78.847 15.2697 76.1684 17.9483 72.8642 17.9483H66.8815C65.7801 17.9483 64.8872 17.0554 64.8872 15.9541C64.8872 14.8527 65.7801 13.9598 66.8815 13.9598H72.8642C73.9656 13.9598 74.8585 13.0669 74.8585 11.9656V9.9713C74.8585 8.86991 75.7513 7.97705 76.8527 7.97705Z" fill="white"/>
<path fill-rule="evenodd" clip-rule="evenodd" d="M86.8244 6.0013C87.9239 6.0013 88.8186 5.10386 88.8186 4.00078C88.8186 2.8977 87.9239 2.00049 86.8244 2.00049C85.7245 2.00049 84.8301 2.8977 84.8301 4.00078C84.8301 5.10386 85.7245 6.0013 86.8244 6.0013Z" fill="white"/>
<path fill-rule="evenodd" clip-rule="evenodd" d="M62.8934 10.0012C61.8172 10.0012 60.8991 10.9396 60.8991 12.0013C60.8991 13.063 61.8172 14.0014 62.8934 14.0014H64.8876V12.0013C64.8876 10.8721 64.002 10.0012 62.8934 10.0012ZM68.8761 12.0013C68.8761 8.63027 66.1722 6.00098 62.8934 6.00098C59.5822 6.00098 56.9106 8.76279 56.9106 12.0013C56.9106 15.2399 59.5822 18.0017 62.8934 18.0017H64.8174C64.686 18.687 64.3888 19.0988 64.0849 19.3612C63.6283 19.7556 62.9301 20.0018 62.0957 20.0018H58.9049C57.8035 20.0018 56.9106 20.8973 56.9106 22.0019C56.9106 23.1065 57.8035 24.002 58.9049 24.002H62.0957C63.6544 24.002 65.3493 23.5482 66.6875 22.3925C68.075 21.1942 68.8761 19.4142 68.8761 17.2016V12.0013Z" fill="white"/>
<path d="M74.1826 5.3363C74.0059 4.97976 74.1542 4.54761 74.5125 4.37459L75.1296 4.07662C74.7497 3.89111 74.4648 3.6453 74.2749 3.33921C74.085 3.03312 73.99 2.69456 73.99 2.32353C73.99 1.99889 74.047 1.69743 74.1609 1.41916C74.2844 1.13162 74.4506 0.885818 74.6595 0.681755C74.8684 0.468417 75.1106 0.301456 75.386 0.180874C75.6709 0.0602911 75.97 0 76.2834 0C76.5724 0 76.7208 0.0370778 76.9606 0.128585C77.3144 0.263608 77.4976 0.660762 77.3764 1.01954C77.2472 1.40216 76.8218 1.56782 76.4185 1.54647C76.3925 1.5451 76.3664 1.54438 76.3404 1.54438C76.0365 1.54438 75.7943 1.62323 75.6139 1.78091C75.4429 1.92932 75.3575 2.13338 75.3575 2.3931C75.3575 2.62499 75.4382 2.81978 75.5996 2.97746C75.7611 3.12587 75.989 3.20008 76.2834 3.20008C76.3973 3.20008 76.516 3.1908 76.6395 3.17225C76.7629 3.14442 76.8959 3.10268 77.0383 3.04703C77.1903 2.99138 77.3565 2.91717 77.5369 2.82441C77.5428 2.82152 77.5488 2.81861 77.5548 2.81568C77.9151 2.63941 78.3516 2.7836 78.5297 3.14307C78.7056 3.49816 78.5624 3.92868 78.2088 4.10759L75.1465 5.65704C74.7919 5.83648 74.359 5.69244 74.1826 5.3363Z" fill="white"/>
</g>
</svg>
